<svg width="20" height="26" viewBox="0 0 20 26" fill="none" xmlns="http://www.w3.org/2000/svg">
<path d="M16.7046 13.783C16.6766 10.6709 19.2474 9.15679 19.365 9.0863C17.909 6.95906 15.6524 6.66842 14.8593 6.64524C12.964 6.44536 11.1255 7.78176 10.16 7.78176C9.17523 7.78176 7.68844 6.66455 6.08601 6.69738C4.02397 6.72925 2.0949 7.92564 1.0369 9.78346C-1.14656 13.5715 0.481879 19.1383 2.57379 22.2002C3.62023 23.7008 4.84301 25.3742 6.4435 25.3153C8.00931 25.2515 8.59419 24.3158 10.4838 24.3158C12.356 24.3158 12.9052 25.3153 14.5375 25.2776C16.218 25.2515 17.276 23.7712 18.2858 22.2581C19.4951 20.5403 19.9807 18.8467 20 18.7597C19.9615 18.7462 16.7373 17.5122 16.7046 13.783ZM13.6212 4.63098C14.4633 3.57558 15.0395 2.13972 14.8796 0.682617C13.6607 0.736691 12.1363 1.52752 11.2585 2.55976C10.4818 3.46936 9.78806 4.96026 9.96728 6.36232C11.3365 6.46467 12.7424 5.66998 13.6212 4.63098Z" fill="white"/>
</svg>
