<svg width="87" height="23" viewBox="0 0 87 23" fill="none" xmlns="http://www.w3.org/2000/svg">
<path d="M3.36328 18.293C1.95703 18.293 0.960938 17.5078 0.960938 15.8086V3.23438C0.960938 1.67578 1.80469 0.796875 3.30469 0.796875C4.80469 0.796875 5.64844 1.67578 5.64844 3.24609V7.60547H5.74219C6.38672 5.78906 7.80469 4.80469 9.77344 4.80469C12.6797 4.80469 14.25 6.60938 14.25 9.71484V15.8086C14.25 17.5078 13.2539 18.293 11.8477 18.293C10.4414 18.293 9.44531 17.5078 9.44531 15.8086V10.7812C9.44531 9.48047 8.8125 8.68359 7.60547 8.68359C6.41016 8.68359 5.76562 9.5625 5.76562 10.7695V15.8086C5.76562 17.5078 4.76953 18.293 3.36328 18.293ZM20.2184 18.1875C17.863 18.1875 15.8591 16.5703 15.8591 14.2383C15.8591 11.7539 17.7692 10.4062 21.2262 10.1953L24.0622 10.0195V9.38672C24.0622 8.51953 23.4059 8.05078 22.5036 8.05078C21.7536 8.05078 21.3786 8.25 20.5466 9.01172C19.9841 9.52734 19.3747 9.78516 18.6598 9.78516C17.5231 9.78516 16.7145 9.08203 16.7145 8.08594C16.7145 7.79297 16.738 7.60547 16.8083 7.37109C17.3005 5.71875 19.5387 4.73438 22.7614 4.73438C26.3473 4.73438 28.7497 6.52734 28.7497 9.15234V15.8789C28.7497 17.543 27.7536 18.293 26.3708 18.293C25.1052 18.293 24.2145 17.6719 24.0622 16.2656H23.9684C23.2887 17.5312 21.7184 18.1875 20.2184 18.1875ZM22.0114 14.9766C23.0778 14.9766 24.0622 14.3789 24.0622 13.4297V12.5859L22.0231 12.7266C21.1091 12.7969 20.5934 13.2305 20.5934 13.8633C20.5934 14.5664 21.1677 14.9766 22.0114 14.9766ZM33.347 18.293C31.9408 18.293 30.9447 17.5078 30.9447 15.8086V3.28125C30.9447 1.58203 31.9408 0.796875 33.347 0.796875C34.7533 0.796875 35.7494 1.58203 35.7494 3.29297V9.62109H35.8431L39.4759 5.78906C40.1556 5.07422 40.7181 4.76953 41.4681 4.76953C42.7337 4.76953 43.6478 5.66016 43.6478 6.89062C43.6478 7.65234 43.4134 8.10938 42.6869 8.78906L40.4369 10.8867L42.8509 14.2383C43.4017 15.0117 43.5658 15.4336 43.5658 16.0547C43.5658 17.4023 42.6283 18.293 41.2337 18.293C40.097 18.293 39.4877 17.8711 38.6556 16.5352L36.7806 13.5L35.7494 14.4375V15.8086C35.7494 17.5078 34.7533 18.293 33.347 18.293ZM51.2686 18.3281C47.0498 18.3281 44.4717 15.8906 44.4717 11.5195C44.4717 7.26562 47.1202 4.73438 51.2686 4.73438C55.4405 4.73438 58.0772 7.24219 58.0772 11.5195C58.0772 15.9023 55.4991 18.3281 51.2686 18.3281ZM51.2686 14.8945C52.4639 14.8945 53.2022 13.6992 53.2022 11.5312C53.2022 9.42188 52.4522 8.16797 51.2686 8.16797C50.0967 8.16797 49.3467 9.42188 49.3467 11.5312C49.3467 13.6992 50.0616 14.8945 51.2686 14.8945ZM62.7097 22.7461C60.7058 22.7461 59.6277 21.9727 59.6277 20.5547C59.6277 19.6172 60.2839 19.0547 61.3269 19.0547C61.4909 19.0547 61.6667 19.0664 61.8308 19.0664C62.2409 19.0664 62.8034 19.0195 63.1433 18.7383L63.2019 18.6914L59.3933 8.48438C59.2058 7.99219 59.1003 7.42969 59.1003 7.00781C59.1003 5.73047 60.1902 4.76953 61.6198 4.76953C62.9323 4.76953 63.5652 5.32031 63.9519 6.77344L66.0378 14.5547H66.1316L68.2175 6.72656C68.5808 5.37891 69.3073 4.76953 70.5612 4.76953C71.9323 4.76953 72.8933 5.66016 72.8933 6.91406C72.8933 7.32422 72.7761 7.93359 72.612 8.39062L69.4011 17.5781C68.112 21.2695 66.2019 22.7461 62.7097 22.7461ZM77.9125 18.1875C75.557 18.1875 73.5531 16.5703 73.5531 14.2383C73.5531 11.7539 75.4633 10.4062 78.9203 10.1953L81.7562 10.0195V9.38672C81.7562 8.51953 81.1 8.05078 80.1977 8.05078C79.4477 8.05078 79.0727 8.25 78.2406 9.01172C77.6781 9.52734 77.0687 9.78516 76.3539 9.78516C75.2172 9.78516 74.4086 9.08203 74.4086 8.08594C74.4086 7.79297 74.432 7.60547 74.5023 7.37109C74.9945 5.71875 77.2328 4.73438 80.4555 4.73438C84.0414 4.73438 86.4437 6.52734 86.4437 9.15234V15.8789C86.4437 17.543 85.4477 18.293 84.0648 18.293C82.7992 18.293 81.9086 17.6719 81.7562 16.2656H81.6625C80.9828 17.5312 79.4125 18.1875 77.9125 18.1875ZM79.7055 14.9766C80.7719 14.9766 81.7562 14.3789 81.7562 13.4297V12.5859L79.7172 12.7266C78.8031 12.7969 78.2875 13.2305 78.2875 13.8633C78.2875 14.5664 78.8617 14.9766 79.7055 14.9766Z" fill="#FF6688"/>
</svg>
